<?xml version="1.0" encoding="UTF-8"?>
<svg version="1.1" xmlns="http://www.w3.org/2000/svg" width="700" height="700">
<path d="M0 0 C4.10928897 3.78415414 8.08671536 7.68211371 12.0078125 11.66015625 C15.15889854 14.76509668 18.49891574 17.64380705 21.875 20.5 C22.76407043 21.31102173 23.65314087 22.12204346 24.56915283 22.9576416 C27.7591056 25.60448544 30.81977949 26.75880721 34.82324219 27.91601562 C35.49080536 28.11353928 36.15836853 28.31106293 36.84616089 28.51457214 C39.03435421 29.15869733 41.22789944 29.78213641 43.421875 30.40625 C44.95922004 30.85638462 46.49609916 31.30811322 48.03253174 31.76135254 C52.06928754 32.9489037 56.11051955 34.12031979 60.15344238 35.28668213 C66.6093789 37.14993422 73.06058199 39.02897382 79.50711823 40.92448425 C81.74349703 41.57814832 83.98312978 42.21955352 86.22332764 42.85998535 C107.59503234 49.05657799 107.59503234 49.05657799 111.875 56.5 C113.46618067 62.71395092 113.09915897 69.13018515 113.125 75.5 C113.1559375 77.40652344 113.1559375 77.40652344 113.1875 79.3515625 C113.19265625 80.57617188 113.1978125 81.80078125 113.203125 83.0625 C113.2124707 84.17753906 113.22181641 85.29257812 113.23144531 86.44140625 C112.82223436 89.95277254 112.08997655 91.75270483 109.875 94.5 C105.98820824 96.73577631 102.46311553 96.73425652 98.04296875 96.6953125 C96.75068359 96.68886719 95.45839844 96.68242187 94.12695312 96.67578125 C92.7721327 96.65907327 91.41731499 96.64214342 90.0625 96.625 C88.68815749 96.61496003 87.31380797 96.60583596 85.93945312 96.59765625 C82.58445683 96.57411242 79.22981801 96.54122567 75.875 96.5 C75.7618042 97.1609668 75.6486084 97.82193359 75.53198242 98.50292969 C73.82202221 107.83557323 70.36882578 115.29160287 62.734375 121.25390625 C54.21686583 126.96206891 46.07204063 128.38507321 35.875 127.5 C26.64061585 125.35674108 19.16586704 121.00339593 13.5625 113.3125 C10.875 108.5 10.875 108.5 7.875 97.5 C-34.365 97.17 -76.605 96.84 -120.125 96.5 C-120.455 99.47 -120.785 102.44 -121.125 105.5 C-124.13383894 114.37113078 -130.11544019 119.98976244 -138.125 124.5 C-147.10416528 128.84371173 -157.38056969 128.8186125 -166.74609375 125.6015625 C-174.82001277 121.86290049 -181.59164425 115.31520298 -185.15625 107.1328125 C-186.50292136 103.32971281 -187.125 100.59208873 -187.125 96.5 C-187.92083496 96.52618408 -188.71666992 96.55236816 -189.53662109 96.5793457 C-193.19087471 96.68416997 -196.84481079 96.74859809 -200.5 96.8125 C-201.75167969 96.85439453 -203.00335938 96.89628906 -204.29296875 96.93945312 C-212.22179608 97.04323359 -218.63855959 96.38550438 -225.125 91.5 C-229.10467949 86.65036235 -231.22922995 82.02871468 -231.30200195 75.71240234 C-231.31483719 74.74064056 -231.32767242 73.76887878 -231.34089661 72.76766968 C-231.34828354 71.71769806 -231.35567047 70.66772644 -231.36328125 69.5859375 C-231.371353 68.50172516 -231.37942474 67.41751282 -231.38774109 66.30044556 C-231.40158002 64.00223386 -231.41230302 61.70400163 -231.42016602 59.40576172 C-231.43733098 55.90942763 -231.48121452 52.41405092 -231.52539062 48.91796875 C-231.53552206 46.6822986 -231.54403675 44.44662043 -231.55078125 42.2109375 C-231.56828934 41.17311127 -231.58579742 40.13528503 -231.60383606 39.06600952 C-231.57745519 30.132747 -229.18792262 22.92614034 -223.0546875 16.3046875 C-197.04991024 -8.01556977 -158.43415683 -18.40707891 -124.125 -23.5 C-123.38137207 -23.61714355 -122.63774414 -23.73428711 -121.87158203 -23.85498047 C-80.24069129 -30.22116758 -32.17728751 -29.29461307 0 0 Z M-121.125 -7.5 C-120.81782743 -3.74954363 -120.50333796 0.00026422 -120.1875 3.75 C-120.10048828 4.81347656 -120.01347656 5.87695312 -119.92382812 6.97265625 C-119.83681641 7.99746094 -119.74980469 9.02226562 -119.66015625 10.078125 C-119.581604 11.02075195 -119.50305176 11.96337891 -119.42211914 12.93457031 C-119.15830105 15.2124672 -118.70397774 17.28758606 -118.125 19.5 C-107.70441838 20.63736349 -97.24411978 21.01453049 -86.77734375 21.47265625 C-84.79593937 21.56079915 -82.81453992 21.64905296 -80.83314514 21.7374115 C-76.69035251 21.92150583 -72.54747826 22.10361429 -68.40454102 22.28442383 C-63.14555725 22.51418919 -57.88685776 22.74986817 -52.62821102 22.98720646 C-48.53660619 23.17102376 -44.44484333 23.35111725 -40.35302925 23.53021049 C-38.41688109 23.61547686 -36.48078605 23.70195971 -34.54475212 23.78978157 C-22.39535349 24.33884565 -10.28691614 24.61258609 1.875 24.5 C1.08304733 23.70902924 0.29109467 22.91805847 -0.52485657 22.1031189 C-2.40368265 20.22214278 -4.2648981 18.33190778 -6.10546875 16.4140625 C-12.32354059 10.00689182 -18.42107421 4.13303683 -26.125 -0.5 C-26.77597656 -0.89574219 -27.42695313 -1.29148438 -28.09765625 -1.69921875 C-44.38789396 -10.6973172 -66.29795855 -9.84875806 -84.38183594 -9.76074219 C-87.02041114 -9.74991625 -89.65831869 -9.76078022 -92.296875 -9.7734375 C-102.0989832 -9.78029068 -111.45604673 -9.26017851 -121.125 -7.5 Z M-178.375 7.6875 C-179.88175293 8.31084229 -179.88175293 8.31084229 -181.41894531 8.94677734 C-186.24792299 11.01835079 -190.08125479 13.08601102 -194.125 16.5 C-188.47342426 16.79065688 -182.82158054 17.07516269 -177.16943359 17.35449219 C-175.25529057 17.4498952 -173.3412239 17.54684575 -171.42724609 17.64550781 C-158.97399663 18.28614742 -146.59574634 18.60232407 -134.125 18.5 C-134.785 10.91 -135.445 3.32 -136.125 -4.5 C-150.17691998 -4.5 -165.57802626 2.36827598 -178.375 7.6875 Z " fill="#000000" transform="translate(522.125,256.5)"/>
<path d="M0 0 C1.19874756 -0.0071553 2.39749512 -0.01431061 3.63256836 -0.02168274 C4.96803258 -0.02452311 6.30349708 -0.02723483 7.63896179 -0.02983093 C9.03999501 -0.03609475 10.44102656 -0.04274148 11.84205627 -0.04974365 C15.65412967 -0.0671606 19.46619052 -0.07770725 23.27829385 -0.08594918 C25.65932893 -0.09109778 28.04036011 -0.09717357 30.42139244 -0.10346031 C37.86926558 -0.12251418 45.31712879 -0.136745 52.76502162 -0.14507228 C61.36579472 -0.154847 69.96631061 -0.18117165 78.56699306 -0.22157317 C85.21249401 -0.25172032 91.85792118 -0.2665398 98.5034892 -0.26985329 C102.47369775 -0.27220536 106.44363159 -0.28118575 110.41376686 -0.30631447 C114.14929386 -0.32957603 117.8843649 -0.33383646 121.61994553 -0.32355309 C123.64315438 -0.32282079 125.66633998 -0.34192544 127.68945312 -0.36161804 C128.89666016 -0.35467422 130.10386719 -0.34773041 131.34765625 -0.34057617 C132.39498082 -0.34296453 133.44230539 -0.34535288 134.52136707 -0.34781361 C138.12948341 0.28039673 139.79319912 1.57853597 142.36430359 4.14717102 C143.53027769 8.15520699 143.7967086 10.19999813 142.05180359 14.02217102 C140.36430359 16.14717102 140.36430359 16.14717102 138.36430359 17.14717102 C136.46024155 17.24729205 134.55263538 17.2822735 132.64595032 17.28761292 C131.42892929 17.29332306 130.21190826 17.2990332 128.95800781 17.30491638 C127.60206614 17.30616179 126.24612436 17.30728688 124.8901825 17.30830383 C123.46782299 17.31293112 122.04546472 17.31795566 120.62310791 17.323349 C116.75324695 17.3364833 112.88340335 17.34291991 109.01352358 17.34735966 C106.59698407 17.35028861 104.18044932 17.35439306 101.7639122 17.35886383 C94.20658122 17.37254121 86.6492611 17.3822068 79.09191859 17.38606572 C70.36157224 17.39054782 61.63138235 17.40810167 52.90108359 17.43706632 C46.15708424 17.45866604 39.41312897 17.46876908 32.6690954 17.47010684 C28.63916984 17.47115606 24.60939131 17.47708862 20.57950211 17.49492645 C16.789042 17.51137781 12.99883989 17.51357709 9.20835686 17.50478745 C7.8167788 17.5040155 6.42518703 17.50838056 5.03364372 17.5182457 C3.13467911 17.5309191 1.23561135 17.52331348 -0.66337585 17.5146637 C-1.72637091 17.51613026 -2.78936596 17.51759682 -3.88457298 17.51910782 C-7.01078703 17.09646083 -8.37096755 16.30381402 -10.63569641 14.14717102 C-11.69948544 11.49877959 -11.88447676 8.98326703 -11.63569641 6.14717102 C-8.33986882 0.80565734 -6.03494336 0.02465148 0 0 Z " fill="#000000" transform="translate(128.6356964111328,256.8528289794922)"/>
<path d="M0 0 C1.82748779 -0.01908669 1.82748779 -0.01908669 3.69189453 -0.03855896 C5.03898815 -0.03237673 6.38607987 -0.02577071 7.73316956 -0.01878357 C9.15420935 -0.02584217 10.57524163 -0.03458694 11.9962616 -0.04489136 C15.85379853 -0.06740293 19.71092551 -0.06444158 23.56850314 -0.05556989 C26.78924633 -0.05046128 30.00991238 -0.05775155 33.23064762 -0.06504196 C40.82905027 -0.08204677 48.42725211 -0.0784696 56.02565002 -0.06175232 C63.86361764 -0.04483089 71.70102834 -0.06066412 79.53893512 -0.0929752 C86.26944107 -0.1196696 92.99977363 -0.12694753 99.73032719 -0.11846012 C103.74970009 -0.11353031 107.76873791 -0.11574898 111.78806877 -0.13624763 C115.56809142 -0.15460268 119.34731305 -0.14864941 123.12729263 -0.12404823 C124.51360359 -0.11903957 125.89997556 -0.12253177 127.28623772 -0.13519669 C139.06809242 -0.23431067 139.06809242 -0.23431067 142.3722229 2.83535767 C144.60815738 6.41055204 144.78770359 8.37157781 144.04786682 12.5146637 C142.40001687 15.14952798 141.71276857 16.0949305 139.04786682 17.5146637 C134.45826334 18.27679613 129.87191133 18.18814684 125.23316956 18.14576721 C123.81035978 18.15090774 122.38755638 18.15819004 120.96476746 18.16744995 C117.10723977 18.18595404 113.25040383 18.17303296 109.392905 18.15335965 C105.35487493 18.13696652 101.31688845 18.14578681 97.27883911 18.15087891 C90.4990179 18.15539862 83.7194727 18.13953649 76.93971252 18.11158752 C69.10118801 18.07952308 61.26316091 18.07955664 53.42460102 18.09680229 C45.88269528 18.11266402 38.34097193 18.105937 30.79907417 18.08886528 C27.58978992 18.08199246 24.38065176 18.08302949 21.17136955 18.09041023 C17.39303867 18.0980697 13.61527422 18.08595889 9.83703995 18.05856133 C8.45032114 18.0516732 7.06354946 18.05158417 5.6768322 18.05877686 C3.78454926 18.06746113 1.89219966 18.04908994 0 18.02932739 C-1.0590986 18.02652047 -2.11819719 18.02371355 -3.20938969 18.02082157 C-6.6368036 17.38831162 -7.82068858 16.21747708 -9.95213318 13.5146637 C-10.48338318 11.2959137 -10.48338318 11.2959137 -10.45213318 9.0146637 C-10.46244568 8.2618512 -10.47275818 7.5090387 -10.48338318 6.7334137 C-9.14186167 1.13058857 -5.24874802 0.01391072 0 0 Z " fill="#000000" transform="translate(72.95213317871094,311.48533630371094)"/>
<path d="M0 0 C1.21702103 -0.0071553 2.43404205 -0.01431061 3.6879425 -0.02168274 C5.04388402 -0.0245231 6.39982581 -0.02723482 7.75576782 -0.02983093 C9.17812771 -0.03609463 10.60048596 -0.04274135 12.02284241 -0.04974365 C15.89269814 -0.06716012 19.76254152 -0.07770682 23.63242674 -0.08594918 C26.04896606 -0.0910972 28.46550152 -0.09717297 30.88203812 -0.10346031 C38.43936611 -0.12251285 45.99668433 -0.13674474 53.55403173 -0.14507228 C62.28442418 -0.15485075 71.0145635 -0.18118572 79.74486673 -0.22157317 C86.48886502 -0.25170383 93.23279061 -0.26653818 99.97685492 -0.26985329 C104.00683351 -0.27220698 108.03654168 -0.28120848 112.06644821 -0.30631447 C115.85696219 -0.32954764 119.64702681 -0.33384794 123.43759346 -0.32355309 C124.82917968 -0.32305647 126.22078767 -0.32941394 127.61230659 -0.34310913 C129.51123134 -0.36075334 131.41035008 -0.35136097 133.30932617 -0.34057617 C134.37232122 -0.34296453 135.43531628 -0.34535288 136.5305233 -0.34781361 C139.9975462 0.2759763 141.14975604 1.39040262 143.28164673 4.14717102 C144.28164673 7.58467102 144.28164673 7.58467102 144.28164673 11.14717102 C142.515235 13.94906548 141.25114851 15.66242013 138.28164673 17.14717102 C136.40521953 17.24932675 134.52514054 17.28666594 132.64595032 17.29434204 C131.44720276 17.30149734 130.2484552 17.30865265 129.01338196 17.31602478 C127.67791774 17.31886516 126.34245324 17.32157687 125.00698853 17.32417297 C123.60595531 17.33043679 122.20492376 17.33708352 120.80389404 17.34408569 C116.99182065 17.36150264 113.1797598 17.37204929 109.36765647 17.38029122 C106.98662138 17.38543982 104.60559021 17.39151561 102.22455788 17.39780235 C94.77668474 17.41685623 87.32882153 17.43108704 79.8809287 17.43941432 C71.2801556 17.44918905 62.67963971 17.47551369 54.07895726 17.51591522 C47.43345631 17.54606236 40.78802914 17.56088184 34.14246112 17.56419533 C30.17225257 17.5665474 26.20231873 17.57552779 22.23218346 17.60065651 C18.49665646 17.62391808 14.76158541 17.6281785 11.02600479 17.61789513 C9.00279594 17.61716283 6.97961034 17.63626748 4.95649719 17.65596008 C3.14568665 17.64554436 3.14568665 17.64554436 1.29829407 17.63491821 C0.2509695 17.63730657 -0.79635508 17.63969492 -1.87541676 17.64215565 C-5.48353309 17.01394531 -7.1472488 15.71580607 -9.71835327 13.14717102 C-10.88432737 9.13913505 -11.15075829 7.09434391 -9.40585327 3.27217102 C-6.56933767 -0.29973752 -4.38341272 0.01763482 0 0 Z " fill="#000000" transform="translate(127.71835327148438,366.8528289794922)"/>
<path d="M0 0 C1.77007714 -0.08114106 3.54122098 -0.13925505 5.3125 -0.1875 C6.29863281 -0.22230469 7.28476563 -0.25710938 8.30078125 -0.29296875 C11 0 11 0 12.83203125 1.3515625 C14.48605104 3.68599845 14.42913579 5.21061733 14 8 C11 10 11 10 8.8125 9.625 C8.214375 9.41875 7.61625 9.2125 7 9 C7.495 8.54625 7.99 8.0925 8.5 7.625 C10.22609337 6.12364481 10.22609337 6.12364481 10 4 C7.69 3.67 5.38 3.34 3 3 C2.67 4.32 2.34 5.64 2 7 C1.34 6.67 0.68 6.34 0 6 C0 4.02 0 2.04 0 0 Z " fill="#000000" transform="translate(180,641)"/>
<path d="M0 0 C0.99 0 1.98 0 3 0 C3 0.66 3 1.32 3 2 C5.64 2.33 8.28 2.66 11 3 C9 5 9 5 5.375 5.125 C4.26125 5.08375 3.1475 5.0425 2 5 C1.67 5.66 1.34 6.32 1 7 C0.34 6.67 -0.32 6.34 -1 6 C-1.042721 4.33388095 -1.04063832 2.66617115 -1 1 C-0.67 0.67 -0.34 0.34 0 0 Z " fill="#000000" transform="translate(117,621)"/>
<path d="M0 0 C0.86625 0.4640625 0.86625 0.4640625 1.75 0.9375 C3.86610718 1.93677284 5.72376414 2.50207341 8 3 C10 3.5 10 3.5 12 4 C10 6 10 6 6.5 6.1875 C3 6 3 6 1 5 C0.375 2.4375 0.375 2.4375 0 0 Z " fill="#000000" transform="translate(204,652)"/>
<path d="M0 0 C0.33 0.99 0.66 1.98 1 3 C-0.0725 3.144375 -1.145 3.28875 -2.25 3.4375 C-4.91662949 3.83749442 -7.41399729 4.27591924 -10 5 C-9.625 3.0625 -9.625 3.0625 -9 1 C-6.04335481 -0.4783226 -3.25770263 -0.06032783 0 0 Z " fill="#000000" transform="translate(198,619)"/>
<path d="M0 0 C1.3921875 0.2784375 1.3921875 0.2784375 2.8125 0.5625 C6.01343771 1.24123881 6.01343771 1.24123881 9 0 C9.66 0.66 10.32 1.32 11 2 C9 4 9 4 5.5 4.1875 C2 4 2 4 0 3 C0 2.01 0 1.02 0 0 Z " fill="#000000" transform="translate(69,654)"/>
<path d="M0 0 C2.24606427 1.77444972 2.95081002 2.58352485 3.29296875 5.48046875 C3.25816406 6.37378906 3.22335938 7.26710938 3.1875 8.1875 C3.16042969 9.08855469 3.13335937 9.98960937 3.10546875 10.91796875 C3.07066406 11.60503906 3.03585938 12.29210937 3 13 C1 12 1 12 0 9 C-0.06740865 7.43881572 -0.08514456 5.8749748 -0.0625 4.3125 C-0.05347656 3.50425781 -0.04445312 2.69601562 -0.03515625 1.86328125 C-0.02355469 1.24839844 -0.01195312 0.63351562 0 0 Z " fill="#000000" transform="translate(196,645)"/>
<path d="M0 0 C0.99 0 1.98 0 3 0 C3 1.65 3 3.3 3 5 C1.35 5.33 -0.3 5.66 -2 6 C-2 5.01 -2 4.02 -2 3 C-1.34 3 -0.68 3 0 3 C0 2.01 0 1.02 0 0 Z " fill="#000000" transform="translate(220,657)"/>
<path d="M0 0 C1.65 0 3.3 0 5 0 C5.33 1.65 5.66 3.3 6 5 C4.68 5 3.36 5 2 5 C1.34 3.35 0.68 1.7 0 0 Z " fill="#000000" transform="translate(166,619)"/>
<path d="M0 0 C1.98 0.495 1.98 0.495 4 1 C3.34 2.32 2.68 3.64 2 5 C1.01 5 0.02 5 -1 5 C-0.67 3.35 -0.34 1.7 0 0 Z " fill="#000000" transform="translate(176,619)"/>
<path d="M0 0 C1.32 0.33 2.64 0.66 4 1 C4 2.65 4 4.3 4 6 C3.01 6 2.02 6 1 6 C0.67 4.02 0.34 2.04 0 0 Z " fill="#000000" transform="translate(107,620)"/>
<path d="M0 0 C0.99 0 1.98 0 3 0 C3 1.65 3 3.3 3 5 C2.01 5 1.02 5 0 5 C0 3.35 0 1.7 0 0 Z " fill="#000000" transform="translate(60,653)"/>
<path d="M0 0 C0.99 0 1.98 0 3 0 C3 1.65 3 3.3 3 5 C2.01 5 1.02 5 0 5 C0 3.35 0 1.7 0 0 Z " fill="#000000" transform="translate(53,653)"/>
<path d="M0 0 C0.99 0 1.98 0 3 0 C3 0.99 3 1.98 3 3 C2.01 3 1.02 3 0 3 C0 2.01 0 1.02 0 0 Z " fill="#000000" transform="translate(83,655)"/>
<path d="M0 0 C1.98 0 3.96 0 6 0 C6 0.33 6 0.66 6 1 C4.02 1 2.04 1 0 1 C0 0.67 0 0.34 0 0 Z " fill="#000000" transform="translate(242,657)"/>
<path d="M0 0 C1.98 0 3.96 0 6 0 C6 0.33 6 0.66 6 1 C4.02 1 2.04 1 0 1 C0 0.67 0 0.34 0 0 Z " fill="#000000" transform="translate(228,657)"/>
<path d="M0 0 C0.99 0 1.98 0 3 0 C3 0.66 3 1.32 3 2 C2.01 2 1.02 2 0 2 C0 1.34 0 0.68 0 0 Z " fill="#000000" transform="translate(91,656)"/>
<path d="M0 0 C1.65 0 3.3 0 5 0 C5 0.33 5 0.66 5 1 C3.35 1 1.7 1 0 1 C0 0.67 0 0.34 0 0 Z " fill="#000000" transform="translate(256,657)"/>
<path d="M0 0 C0.66 0 1.32 0 2 0 C2 0.66 2 1.32 2 2 C1.01 1.67 0.02 1.34 -1 1 C-0.67 0.67 -0.34 0.34 0 0 Z " fill="#000000" transform="translate(100,656)"/>
<path d="M0 0 C0.99 0 1.98 0 3 0 C2.67 0.66 2.34 1.32 2 2 C1.34 1.34 0.68 0.68 0 0 Z " fill="#000000" transform="translate(341,615)"/>
<path d="M0 0 C0.66 0.66 1.32 1.32 2 2 C1.34 2 0.68 2 0 2 C0 1.34 0 0.68 0 0 Z " fill="#000000" transform="translate(163,620)"/>
<path d="M0 0 C2 1 2 1 2 1 Z " fill="#000000" transform="translate(207,619)"/>
<path d="" fill="#000000" transform="translate(0,0)"/>
<path d="" fill="#000000" transform="translate(0,0)"/>
<path d="" fill="#000000" transform="translate(0,0)"/>
</svg>
