<svg xmlns="http://www.w3.org/2000/svg" width="32" height="32"><path fill-rule="evenodd" d="M4.16 0A4.151 4.151 0 0 0 0 4.16v23.68A4.151 4.151 0 0 0 4.16 32h23.68A4.151 4.151 0 0 0 32 27.84V4.16A4.151 4.151 0 0 0 27.84 0H4.16zm7.74 7.494a.5.5 0 0 1 .1.006h11a.5.5 0 0 1 .5.5v8.125a4.532 4.532 0 0 0-1-.656V14.5h-1v.594a4.528 4.528 0 0 0-.938-.094H20.5v-.5h-1.094c-.389-.4-.846-.744-1.343-1H20.5v-2h-8v2h1.469c-.523.25-.976.585-1.375 1H12.5v.094c-.42.46-.77.998-1 1.594V8a.5.5 0 0 1 .344-.5.5.5 0 0 1 .056-.006zm.6 1.006v2h8v-2h-8zm9 0v2h1v-2h-1zm0 3v2h1v-2h-1zM16.031 14c1.395 0 2.593.792 3.313 1.906l.187.281.344-.062c.274-.063.464-.125.688-.125 1.93 0 3.5 1.569 3.5 3.5 0 1.936-1.557 3.5-3.344 3.5h-10.25a2.536 2.536 0 0 1-2.531-2.531 2.534 2.534 0 0 1 2.53-2.532c.204 0 .462.188.907.375l.656.282.031-.719C12.14 15.733 13.874 14 16.032 14z"/></svg>