<?xml version="1.0" encoding="UTF-8"?>
<svg version="1.1" xmlns="http://www.w3.org/2000/svg" width="128" height="128">
<path d="M0 0 C2.68006344 0.52436024 4.67304248 0.50616299 7.375 0.375 C12.79183167 0.30245315 17.32229621 1.72328605 22.40625 3.4921875 C25.26727016 4.37497976 27.747035 4.83235923 30.68359375 5.25390625 C36.80380673 6.42559202 40.74904221 9.68983417 45.4375 13.625 C46.6450293 14.60049805 46.6450293 14.60049805 47.87695312 15.59570312 C53.33244978 20.01994978 53.33244978 20.01994978 54.875 21.5625 C56.38969448 21.79442865 57.91254562 21.97465238 59.4375 22.125 C60.67693359 22.25068359 60.67693359 22.25068359 61.94140625 22.37890625 C62.57949219 22.43949219 63.21757813 22.50007813 63.875 22.5625 C63.875 23.5525 63.875 24.5425 63.875 25.5625 C62.885 25.5625 61.895 25.5625 60.875 25.5625 C60.58625 26.201875 60.2975 26.84125 60 27.5 C58.875 29.5625 58.875 29.5625 56.875 30.5625 C56.875 31.5525 56.875 32.5425 56.875 33.5625 C60.835 33.5625 64.795 33.5625 68.875 33.5625 C68.875 34.2225 68.875 34.8825 68.875 35.5625 C68.215 35.5625 67.555 35.5625 66.875 35.5625 C66.79765625 36.16964844 66.7203125 36.77679688 66.640625 37.40234375 C65.60935408 40.312001 64.34669086 40.75964846 61.625 42.125 C60.81289062 42.54265625 60.00078125 42.9603125 59.1640625 43.390625 C58.40867187 43.77734375 57.65328125 44.1640625 56.875 44.5625 C55.451875 45.4596875 55.451875 45.4596875 54 46.375 C51.875 47.5625 51.875 47.5625 48.875 47.5625 C48.9575 48.325625 49.04 49.08875 49.125 49.875 C49.0425 50.761875 48.96 51.64875 48.875 52.5625 C48.235625 52.995625 47.59625 53.42875 46.9375 53.875 C44.44773186 55.91208302 44.48907064 56.6526826 44.125 59.75 C44.0425 61.008125 43.96 62.26625 43.875 63.5625 C43.215 63.5625 42.555 63.5625 41.875 63.5625 C41.88660156 64.80386719 41.89820312 66.04523438 41.91015625 67.32421875 C41.91953868 68.96614432 41.9286384 70.60807153 41.9375 72.25 C41.94587891 73.06662109 41.95425781 73.88324219 41.96289062 74.72460938 C41.97942051 78.80749084 41.90535098 82.57901707 40.875 86.5625 C42.11894531 86.74425781 43.36289063 86.92601563 44.64453125 87.11328125 C69.08410621 90.77160621 69.08410621 90.77160621 71.875 93.5625 C71.875 101.1525 71.875 108.7425 71.875 116.5625 C29.635 116.5625 -12.605 116.5625 -56.125 116.5625 C-56.125 91.4825 -56.125 66.4025 -56.125 40.5625 C-50.125 40.5625 -50.125 40.5625 -47.125 42.5625 C-47.1971875 43.22894531 -47.269375 43.89539062 -47.34375 44.58203125 C-47.94021104 50.50522077 -48.20092746 56.29761942 -48.0625 62.25 C-48.125 64.5625 -48.125 64.5625 -49.125 67.5625 C-48.0421875 68.5215625 -48.0421875 68.5215625 -46.9375 69.5 C-42.0543639 74.3831361 -38.90104395 80.94269982 -37.125 87.5625 C-37.125 88.2225 -37.125 88.8825 -37.125 89.5625 C-32.175 88.5725 -32.175 88.5725 -27.125 87.5625 C-27.27839844 86.78648438 -27.43179687 86.01046875 -27.58984375 85.2109375 C-28.27490714 80.54050532 -28.48246477 75.89994915 -28.6875 71.1875 C-28.73068359 70.26066406 -28.77386719 69.33382812 -28.81835938 68.37890625 C-28.92376186 66.10689706 -29.02588606 63.83479075 -29.125 61.5625 C-30.115 61.5625 -31.105 61.5625 -32.125 61.5625 C-32.5375 60.655 -32.95 59.7475 -33.375 58.8125 C-34.857644 55.54688406 -34.857644 55.54688406 -37.25 53.875 C-39.94858088 50.54675025 -39.65604925 47.40933233 -39.75390625 43.21875 C-40.1830355 40.14708803 -41.14496036 38.89343274 -43.125 36.5625 C-44.28269166 33.92553565 -45.21415323 31.2950403 -46.125 28.5625 C-43.485 28.8925 -40.845 29.2225 -38.125 29.5625 C-37.795 28.2425 -37.465 26.9225 -37.125 25.5625 C-38.07375 25.294375 -39.0225 25.02625 -40 24.75 C-43.125 23.5625 -43.125 23.5625 -45.125 20.5625 C-45.125 19.5725 -45.125 18.5825 -45.125 17.5625 C-44.2175 17.7275 -43.31 17.8925 -42.375 18.0625 C-39.01412497 18.66387146 -39.01412497 18.66387146 -35.125 18.5625 C-33.98007922 16.87879297 -32.8372455 15.1936141 -31.70703125 13.5 C-25.98887985 6.4970294 -9.05318311 -1.86389064 0 0 Z M-48.125 82.5625 C-48.125 83.2225 -48.125 83.8825 -48.125 84.5625 C-47.465 84.2325 -46.805 83.9025 -46.125 83.5625 C-46.785 83.2325 -47.445 82.9025 -48.125 82.5625 Z " fill="#A67457" transform="translate(56.125,11.4375)"/>
<path d="M0 0 C2.68006344 0.52436024 4.67304248 0.50616299 7.375 0.375 C12.79183167 0.30245315 17.32229621 1.72328605 22.40625 3.4921875 C25.26727016 4.37497976 27.747035 4.83235923 30.68359375 5.25390625 C36.80380673 6.42559202 40.74904221 9.68983417 45.4375 13.625 C46.6450293 14.60049805 46.6450293 14.60049805 47.87695312 15.59570312 C53.33244978 20.01994978 53.33244978 20.01994978 54.875 21.5625 C56.38969448 21.79442865 57.91254562 21.97465238 59.4375 22.125 C60.67693359 22.25068359 60.67693359 22.25068359 61.94140625 22.37890625 C62.57949219 22.43949219 63.21757813 22.50007813 63.875 22.5625 C63.875 23.5525 63.875 24.5425 63.875 25.5625 C62.885 25.5625 61.895 25.5625 60.875 25.5625 C60.58625 26.201875 60.2975 26.84125 60 27.5 C58.875 29.5625 58.875 29.5625 56.875 30.5625 C56.875 31.5525 56.875 32.5425 56.875 33.5625 C60.835 33.5625 64.795 33.5625 68.875 33.5625 C68.875 34.2225 68.875 34.8825 68.875 35.5625 C68.215 35.5625 67.555 35.5625 66.875 35.5625 C66.79765625 36.16964844 66.7203125 36.77679688 66.640625 37.40234375 C65.60935408 40.312001 64.34669086 40.75964846 61.625 42.125 C60.81289062 42.54265625 60.00078125 42.9603125 59.1640625 43.390625 C58.40867187 43.77734375 57.65328125 44.1640625 56.875 44.5625 C55.451875 45.4596875 55.451875 45.4596875 54 46.375 C51.875 47.5625 51.875 47.5625 48.875 47.5625 C48.9575 48.325625 49.04 49.08875 49.125 49.875 C49.0425 50.761875 48.96 51.64875 48.875 52.5625 C48.235625 52.995625 47.59625 53.42875 46.9375 53.875 C44.44773186 55.91208302 44.48907064 56.6526826 44.125 59.75 C44.0425 61.008125 43.96 62.26625 43.875 63.5625 C41.895 63.0675 41.895 63.0675 39.875 62.5625 C39.875 61.9025 39.875 61.2425 39.875 60.5625 C39.01648438 61.04396484 39.01648438 61.04396484 38.140625 61.53515625 C33.72138934 63.53905104 29.14368159 63.40638675 24.6171875 61.72265625 C20.03831987 59.21357196 17.74530007 56.63870984 16.265625 51.62109375 C15.4484222 47.31443502 15.49258479 43.70974562 16.875 39.5625 C14.565 39.5625 12.255 39.5625 9.875 39.5625 C10.205 40.5525 10.535 41.5425 10.875 42.5625 C11.64658795 49.08937516 10.79333416 53.26745383 6.875 58.5625 C1.74493935 62.41004549 -3.44072915 62.96416989 -9.71484375 62.91796875 C-13.43233046 62.36968465 -14.94341026 60.49401121 -17.125 57.5625 C-19.125 54.5625 -19.125 54.5625 -20.125 48.5625 C-21.115 53.1825 -22.105 57.8025 -23.125 62.5625 C-24.445 62.5625 -25.765 62.5625 -27.125 62.5625 C-27.125 63.2225 -27.125 63.8825 -27.125 64.5625 C-27.785 64.5625 -28.445 64.5625 -29.125 64.5625 C-29.125 63.5725 -29.125 62.5825 -29.125 61.5625 C-30.115 61.5625 -31.105 61.5625 -32.125 61.5625 C-32.5375 60.655 -32.95 59.7475 -33.375 58.8125 C-34.857644 55.54688406 -34.857644 55.54688406 -37.25 53.875 C-39.94858088 50.54675025 -39.65604925 47.40933233 -39.75390625 43.21875 C-40.1830355 40.14708803 -41.14496036 38.89343274 -43.125 36.5625 C-44.28269166 33.92553565 -45.21415323 31.2950403 -46.125 28.5625 C-43.485 28.8925 -40.845 29.2225 -38.125 29.5625 C-37.795 28.2425 -37.465 26.9225 -37.125 25.5625 C-38.07375 25.294375 -39.0225 25.02625 -40 24.75 C-43.125 23.5625 -43.125 23.5625 -45.125 20.5625 C-45.125 19.5725 -45.125 18.5825 -45.125 17.5625 C-44.2175 17.7275 -43.31 17.8925 -42.375 18.0625 C-39.01412497 18.66387146 -39.01412497 18.66387146 -35.125 18.5625 C-33.98007922 16.87879297 -32.8372455 15.1936141 -31.70703125 13.5 C-25.98887985 6.4970294 -9.05318311 -1.86389064 0 0 Z " fill="#281E1A" transform="translate(56.125,11.4375)"/>
<path d="M0 0 C-0.10658936 0.57967529 -0.21317871 1.15935059 -0.32299805 1.7565918 C-0.79727097 4.39715975 -1.24258861 7.04183351 -1.6875 9.6875 C-1.85572266 10.59951172 -2.02394531 11.51152344 -2.19726562 12.45117188 C-3.13940477 17.92121655 -3.13940477 17.92121655 -1.58203125 23.14453125 C-0.79892578 24.06298828 -0.79892578 24.06298828 0 25 C0.14099121 24.44538086 0.28198242 23.89076172 0.42724609 23.31933594 C1.07179223 20.79499554 1.72332156 18.27250811 2.375 15.75 C2.59671875 14.87730469 2.8184375 14.00460938 3.046875 13.10546875 C3.37558594 11.83896484 3.37558594 11.83896484 3.7109375 10.546875 C4.00943604 9.38430176 4.00943604 9.38430176 4.31396484 8.19824219 C5.00528748 5.98305749 5.90561849 4.04230304 7 2 C7.66 2.33 8.32 2.66 9 3 C8.99097656 4.25554688 8.98195312 5.51109375 8.97265625 6.8046875 C9.08857523 17.17219104 9.64730248 24.08864164 17 32 C17.33 32.66 17.66 33.32 18 34 C17.01 34.33 16.02 34.66 15 35 C15.04640625 36.00160156 15.0928125 37.00320312 15.140625 38.03515625 C15.58351794 51.54933002 15.58351794 51.54933002 11 57 C5.86993935 60.84754549 0.68427085 61.40166989 -5.58984375 61.35546875 C-9.30733046 60.80718465 -10.81841026 58.93151121 -13 56 C-15 53 -15 53 -16 47 C-16.99 51.62 -17.98 56.24 -19 61 C-20.32 61 -21.64 61 -23 61 C-23 61.66 -23 62.32 -23 63 C-23.66 63 -24.32 63 -25 63 C-25 62.01 -25 61.02 -25 60 C-25.99 60 -26.98 60 -28 60 C-28.4125 59.0925 -28.825 58.185 -29.25 57.25 C-30.732644 53.98438406 -30.732644 53.98438406 -33.125 52.3125 C-35.82358088 48.98425025 -35.53104925 45.84683233 -35.62890625 41.65625 C-36.0580355 38.58458803 -37.01996036 37.33093274 -39 35 C-40.15769166 32.36303565 -41.08915323 29.7325403 -42 27 C-39.36 27.33 -36.72 27.66 -34 28 C-33.67 26.68 -33.34 25.36 -33 24 C-33.94875 23.731875 -34.8975 23.46375 -35.875 23.1875 C-39 22 -39 22 -41 19 C-41 18.01 -41 17.02 -41 16 C-40.0925 16.165 -39.185 16.33 -38.25 16.5 C-34.88912497 17.10137146 -34.88912497 17.10137146 -31 17 C-29.85732304 15.31959271 -28.71774503 13.63695349 -27.59765625 11.94140625 C-21.51851769 4.55428677 -9.37741621 -0.35233067 0 0 Z " fill="#1F130E" transform="translate(52,13)"/>
<path d="M0 0 C21.96875 2.96875 21.96875 2.96875 25 6 C25.08713831 7.70772358 25.10700007 9.41898649 25.09765625 11.12890625 C25.09515869 12.06033447 25.09266113 12.9917627 25.09008789 13.95141602 C25.08098389 15.14307373 25.07187988 16.33473145 25.0625 17.5625 C25.041875 21.336875 25.02125 25.11125 25 29 C11.47 29 -2.06 29 -16 29 C-16.84186703 24.79066487 -17.10535527 21.43017133 -17.0625 17.1875 C-17.05347656 16.02605469 -17.04445313 14.86460938 -17.03515625 13.66796875 C-17.02355469 12.78753906 -17.01195313 11.90710938 -17 11 C-16.01 10.67 -15.02 10.34 -14 10 C-14.66 9.67 -15.32 9.34 -16 9 C-15 7 -14 5 -13 3 C-8.38 3 -3.76 3 1 3 C0.67 2.01 0.34 1.02 0 0 Z " fill="#575756" transform="translate(103,99)"/>
<path d="M0 0 C0.55075195 0.14236084 1.10150391 0.28472168 1.66894531 0.43139648 C4.60088599 1.14657137 7.27904631 1.11189129 10.296875 1.09765625 C12.10478516 1.09282227 12.10478516 1.09282227 13.94921875 1.08789062 C15.83060547 1.07532227 15.83060547 1.07532227 17.75 1.0625 C19.01972656 1.05798828 20.28945313 1.05347656 21.59765625 1.04882812 C24.73181836 1.03704556 27.86588541 1.02059416 31 1 C31.495 1.99 31.495 1.99 32 3 C29.09399739 4.25664978 27.20395416 5 24 5 C24 5.66 24 6.32 24 7 C20.53846154 10 20.53846154 10 18 10 C18 10.99 18 11.98 18 13 C17.34 13 16.68 13 16 13 C15.9175 13.53625 15.835 14.0725 15.75 14.625 C14.46226198 18.70283705 12.00339996 21.99660004 9 25 C6.93701172 25.22705078 6.93701172 25.22705078 4.4296875 25.1953125 C3.21901611 25.18781982 3.21901611 25.18781982 1.98388672 25.18017578 C0.44498779 25.15286377 0.44498779 25.15286377 -1.125 25.125 C-6.013125 25.063125 -6.013125 25.063125 -11 25 C-11 17.41 -11 9.82 -11 2 C-7.7 1.67 -4.4 1.34 -1 1 C-0.67 0.67 -0.34 0.34 0 0 Z " fill="#151615" transform="translate(11,103)"/>
<path d="M0 0 C4.90274017 -0.19610961 8.40516398 0.37829317 13 2 C14.53351876 2.21207502 16.06741406 2.42143533 17.6015625 2.62890625 C23.82166823 3.84291687 27.79105509 7.05768055 32.5625 11.0625 C33.36751953 11.71283203 34.17253906 12.36316406 35.00195312 13.03320312 C40.45744978 17.45744978 40.45744978 17.45744978 42 19 C43.51469448 19.23192865 45.03754562 19.41215238 46.5625 19.5625 C47.38878906 19.64628906 48.21507812 19.73007812 49.06640625 19.81640625 C50.02353516 19.90728516 50.02353516 19.90728516 51 20 C51 20.99 51 21.98 51 23 C50.01 23 49.02 23 48 23 C47.71125 23.639375 47.4225 24.27875 47.125 24.9375 C46 27 46 27 44 28 C44 28.99 44 29.98 44 31 C45.65 31.33 47.3 31.66 49 32 C48.67 32.99 48.34 33.98 48 35 C40.07569721 35.62151394 40.07569721 35.62151394 36.1875 33.375 C30 26.65714286 30 26.65714286 30 23 C27.34771188 21.92474806 24.71631546 20.90543849 22 20 C22 19.34 22 18.68 22 18 C18.03302114 16.19682779 14.3177458 15.50797009 10 15 C10 14.34 10 13.68 10 13 C9.01 13 8.02 13 7 13 C6.67 10.03 6.34 7.06 6 4 C4.02 4.33 2.04 4.66 0 5 C0 3.35 0 1.7 0 0 Z " fill="#3C302C" transform="translate(69,14)"/>
<path d="M0 0 C-0.33 0.99 -0.66 1.98 -1 3 C-1 8.61 -1 14.22 -1 20 C-12.22 20 -23.44 20 -35 20 C-33.02 17.03 -31.04 14.06 -29 11 C-28.67 10.01 -28.34 9.02 -28 8 C-27.34 8 -26.68 8 -26 8 C-26 7.01 -26 6.02 -26 5 C-22.66666667 2 -22.66666667 2 -20 2 C-20 1.34 -20 0.68 -20 0 C-12.63112037 -3.82614904 -7.72368572 -2.51019786 0 0 Z " fill="#484747" transform="translate(55,108)"/>
<path d="M0 0 C0.66 -0.33 1.32 -0.66 2 -1 C4.11434065 2.17151097 5.01955937 4.86432861 6.125 8.5 C6.47820312 9.6446875 6.83140625 10.789375 7.1953125 11.96875 C8 15 8 15 8 18 C-0.91 18 -9.82 18 -19 18 C-19.2475 15.256875 -19.495 12.51375 -19.75 9.6875 C-19.88293457 8.39718872 -19.88293457 8.39718872 -20.01855469 7.08081055 C-20.43069826 1.51884116 -20.43069826 1.51884116 -18.3203125 -1.0234375 C-12.2928217 -3.56026023 -5.92608251 -2.22228094 0 0 Z " fill="#4D4C4B" transform="translate(77,110)"/>
<path d="M0 0 C2.70827845 4.06241767 2.64175877 7.23038545 2 12 C0.65437347 15.79684892 -1.24464222 18.43348166 -4.5 20.875 C-9.78615059 23.25376777 -15.26039957 23.84652129 -21 23 C-24.38704522 20.38915264 -27.53529875 17.29281842 -28.4140625 12.95703125 C-28.609375 10.97135417 -28.8046875 8.98567708 -29 7 C-28.34 7 -27.68 7 -27 7 C-26.67 7.66 -26.34 8.32 -26 9 C-23.41626766 8.69055299 -20.83304867 8.37756043 -18.25 8.0625 C-17.52039062 7.97548828 -16.79078125 7.88847656 -16.0390625 7.79882812 C-8.05677701 6.84946392 -8.05677701 6.84946392 -2 2 C-1.34 2 -0.68 2 0 2 C0 1.34 0 0.68 0 0 Z " fill="#2C2827" transform="translate(65,51)"/>
<path d="M0 0 C6 0 6 0 9 2 C8.9278125 2.66644531 8.855625 3.33289062 8.78125 4.01953125 C8.18478896 9.94272077 7.92407254 15.73511942 8.0625 21.6875 C8 24 8 24 7 27 C7.721875 27.639375 8.44375 28.27875 9.1875 28.9375 C13.35699623 33.08323841 16.15253635 38.45760905 18 44 C16.02 44.99 14.04 45.98 12 47 C11.01 45.68 10.02 44.36 9 43 C7.515 43.495 7.515 43.495 6 44 C5.61008367 41.08462559 5.23761 38.16878665 4.875 35.25 C4.70677734 34.0125 4.70677734 34.0125 4.53515625 32.75 C4.43847656 31.95078125 4.34179688 31.1515625 4.2421875 30.328125 C4.1479248 29.5949707 4.05366211 28.86181641 3.95654297 28.10644531 C4.00814365 25.60526153 4.74570545 24.13694627 6 22 C4.02 21.67 2.04 21.34 0 21 C0 14.07 0 7.14 0 0 Z " fill="#776C56" transform="translate(0,52)"/>
<path d="M0 0 C0.85078125 0.04833984 1.7015625 0.09667969 2.578125 0.14648438 C3.46757813 0.20255859 4.35703125 0.25863281 5.2734375 0.31640625 C6.170625 0.36861328 7.0678125 0.42082031 7.9921875 0.47460938 C10.21123133 0.60444705 12.4298779 0.74104165 14.6484375 0.87890625 C14.6484375 6.48890625 14.6484375 12.09890625 14.6484375 17.87890625 C10.3584375 17.87890625 6.0684375 17.87890625 1.6484375 17.87890625 C0.44401042 15.66536458 -0.76041667 13.45182292 -1.96484375 11.23828125 C-3.28641583 8.85310218 -3.28641583 8.85310218 -5.01953125 6.83203125 C-6.3515625 4.87890625 -6.3515625 4.87890625 -6.3515625 0.87890625 C-3.94721244 -0.32326878 -2.66774881 -0.16006493 0 0 Z " fill="#191919" transform="translate(113.3515625,110.12109375)"/>
<path d="M0 0 C21.96875 2.96875 21.96875 2.96875 25 6 C25 7.98 25 9.96 25 12 C18.07 12 11.14 12 4 12 C3.67 12.66 3.34 13.32 3 14 C2.29875 13.4225 1.5975 12.845 0.875 12.25 C-2.00440102 9.92429334 -2.00440102 9.92429334 -5.3125 7.875 C-6.199375 7.25625 -7.08625 6.6375 -8 6 C-8 5.34 -8 4.68 -8 4 C-4.7 4 -1.4 4 2 4 C1.34 2.68 0.68 1.36 0 0 Z " fill="#4B4B4C" transform="translate(103,99)"/>
<path d="M0 0 C2.97 0.495 2.97 0.495 6 1 C5.814375 2.216875 5.62875 3.43375 5.4375 4.6875 C5.00820009 8.09804929 5.26116529 10.63419745 6 14 C6.09158278 17.00187989 6.05887009 19.99762533 6 23 C6.78375 22.95875 7.5675 22.9175 8.375 22.875 C11 23 11 23 13 25 C14.65 24.34 16.3 23.68 18 23 C18.33 24.65 18.66 26.3 19 28 C17.72157001 28.69171091 16.42600594 29.35174791 15.125 30 C14.40570313 30.37125 13.68640625 30.7425 12.9453125 31.125 C10 32 10 32 0 32 C0 21.44 0 10.88 0 0 Z " fill="#AFB0AF" transform="translate(0,73)"/>
<path d="M0 0 C4.90274017 -0.19610961 8.40516398 0.37829317 13 2 C15.53892593 2.48841023 18.0800007 2.93028049 20.6328125 3.33984375 C23.29897739 4.08337818 24.90113625 5.22515439 27 7 C26.6875 9.875 26.6875 9.875 26 13 C22.70315344 15.19789771 21.81477519 15.37300024 18 15 C14.39065078 13.77704209 11.13484911 12.17028015 8 10 C6.375 6.6875 6.375 6.6875 6 4 C4.02 4.33 2.04 4.66 0 5 C0 3.35 0 1.7 0 0 Z " fill="#554A49" transform="translate(69,14)"/>
<path d="M0 0 C3.94169383 0.78833877 7.80621801 0.64105455 11.8125 0.5625 C11.8125 1.2225 11.8125 1.8825 11.8125 2.5625 C11.19375 2.68625 10.575 2.81 9.9375 2.9375 C7.62129168 3.43447356 7.62129168 3.43447356 5.8125 5.5625 C5.1525 4.5725 4.4925 3.5825 3.8125 2.5625 C2.8225 2.5625 1.8325 2.5625 0.8125 2.5625 C0.70292969 3.75746094 0.59335937 4.95242187 0.48046875 6.18359375 C-0.31565456 14.33486917 -1.07082764 21.91248604 -4.1875 29.5625 C-4.5175 29.5625 -4.8475 29.5625 -5.1875 29.5625 C-5.31125 28.428125 -5.435 27.29375 -5.5625 26.125 C-5.76875 24.949375 -5.975 23.77375 -6.1875 22.5625 C-6.8475 22.2325 -7.5075 21.9025 -8.1875 21.5625 C-7.71226432 18.60348541 -7.23249898 15.64533097 -6.75 12.6875 C-6.61529297 11.84574219 -6.48058594 11.00398438 -6.34179688 10.13671875 C-6.20966797 9.33105469 -6.07753906 8.52539062 -5.94140625 7.6953125 C-5.82095947 6.95168457 -5.7005127 6.20805664 -5.57641602 5.44189453 C-5.1875 3.5625 -5.1875 3.5625 -4.1875 1.5625 C-4.8475 1.2325 -5.5075 0.9025 -6.1875 0.5625 C-3.87563283 -0.20812239 -2.4126739 -0.48253478 0 0 Z " fill="#493C39" transform="translate(56.1875,11.4375)"/>
<path d="M0 0 C3.64681311 1.21560437 4.13697855 2.37983749 6.25 5.5 C8.62108172 8.79810508 8.62108172 8.79810508 12.01171875 10.81640625 C14.12039864 11.13381517 14.12039864 11.13381517 17 11 C17 10.34 17 9.68 17 9 C18.33333333 7.66666667 19.66666667 6.33333333 21 5 C21.515625 4.0925 22.03125 3.185 22.5625 2.25 C23.036875 1.5075 23.51125 0.765 24 0 C24.99 0 25.98 0 27 0 C26.38765415 3.33803163 25.19402068 5.39130166 23.125 8.0625 C22.35542969 9.06990234 22.35542969 9.06990234 21.5703125 10.09765625 C21.05210938 10.72542969 20.53390625 11.35320312 20 12 C19.52820313 12.57234375 19.05640625 13.1446875 18.5703125 13.734375 C16.49596407 15.40623791 15.38390483 15.38550333 12.75 15.1875 C7.71969039 14.44774859 5.36427555 12.06116727 2.30859375 8.14453125 C0.66678485 5.45392503 0.07861419 3.14456771 0 0 Z " fill="#20130B" transform="translate(55,81)"/>
<path d="M0 0 C2.97 0.495 2.97 0.495 6 1 C5.835 2.051875 5.67 3.10375 5.5 4.1875 C4.74288605 10.10578512 4.91830321 16.04521179 5 22 C4.01 22 3.02 22 2 22 C2 22.66 2 23.32 2 24 C1.34 24 0.68 24 0 24 C0 16.08 0 8.16 0 0 Z " fill="#DCDAD7" transform="translate(0,73)"/>
<path d="M0 0 C0.24363281 0.61230469 0.48726563 1.22460938 0.73828125 1.85546875 C2.97385577 5.6552533 6.89191474 6.8291288 11 8 C13.57767755 8.03280681 15.47596683 7.644434 18 7 C18.66 5.35 19.32 3.7 20 2 C20.556875 2.7425 21.11375 3.485 21.6875 4.25 C23.88831866 7.06754901 23.88831866 7.06754901 26.6875 9.0625 C29.10394436 11.08708852 29.67140682 11.93313028 30 15 C25.33230769 13.36 25.33230769 13.36 23.5 11.375 C22.04387637 9.76655092 22.04387637 9.76655092 19.625 9.75 C17.03600088 9.91927555 17.03600088 9.91927555 14.75 10.625 C10.63320228 11.18638151 6.97845877 10.0487876 3 9 C3 8.34 3 7.68 3 7 C2.01 7 1.02 7 0 7 C0 4.69 0 2.38 0 0 Z " fill="#453936" transform="translate(76,20)"/>
<path d="M0 0 C1.75 1.375 1.75 1.375 3 3 C3.66 3.66 4.32 4.32 5 5 C-0.13235287 5.82117646 -5.17596796 6.14302403 -10.375 6.25 C-11.57898438 6.27578125 -12.78296875 6.3015625 -14.0234375 6.328125 C-15.00570313 6.21984375 -15.98796875 6.1115625 -17 6 C-17.66 5.01 -18.32 4.02 -19 3 C-16.96040523 2.49161436 -14.91820862 1.99366114 -12.875 1.5 C-11.73804688 1.2215625 -10.60109375 0.943125 -9.4296875 0.65625 C-6.16168414 0.03093728 -3.31517957 -0.22230067 0 0 Z " fill="#6E6C6C" transform="translate(32,99)"/>
<path d="M0 0 C0.66 0 1.32 0 2 0 C6.01342439 5.14541588 9.74483996 10.47316779 11 17 C10.01 17.66 9.02 18.32 8 19 C7.01 17.68 6.02 16.36 5 15 C4.01 15.33 3.02 15.66 2 16 C1.34 10.72 0.68 5.44 0 0 Z " fill="#4E4531" transform="translate(4,80)"/>
<path d="M0 0 C0.33 0.99 0.66 1.98 1 3 C-3.62 3 -8.24 3 -13 3 C-13.66 4.32 -14.32 5.64 -15 7 C-15.33 7.66 -15.66 8.32 -16 9 C-15.01 9.33 -14.02 9.66 -13 10 C-14.32 10.33 -15.64 10.66 -17 11 C-17 13.31 -17 15.62 -17 18 C-17.33 18 -17.66 18 -18 18 C-18.12375 16.948125 -18.2475 15.89625 -18.375 14.8125 C-18.91140782 11.54041229 -19.63880035 8.99463924 -21 6 C-18 4 -18 4 -14 4 C-14 3.34 -14 2.68 -14 2 C-8.76579213 -1.27137992 -5.83394389 -1.10643764 0 0 Z " fill="#8C786E" transform="translate(103,99)"/>
<path d="M0 0 C1.6396875 0.2165625 1.6396875 0.2165625 3.3125 0.4375 C5.80093974 0.76015737 8.26499281 1.01756652 10.76953125 1.18359375 C16.26053369 1.55166368 20.29709147 2.07657038 25 5 C24.67 5.66 24.34 6.32 24 7 C21.37461716 6.85946128 18.74982573 6.71281053 16.125 6.5625 C15.37863281 6.52318359 14.63226563 6.48386719 13.86328125 6.44335938 C8.2265625 6.11328125 8.2265625 6.11328125 6 5 C6 4.34 6 3.68 6 3 C5.38125 2.87625 4.7625 2.7525 4.125 2.625 C2 2 2 2 0 0 Z " fill="#392F2C" transform="translate(10,40)"/>
<path d="M0 0 C2.38564077 0.57584432 4.66682784 1.22227595 7 2 C8.11375 1.896875 9.2275 1.79375 10.375 1.6875 C14 2 14 2 15.56640625 3.33203125 C16.79298669 4.82419605 17.90569633 6.40828557 19 8 C13.04515373 9.59603088 7.61864399 8.35432037 2 6 C0.25 2.8125 0.25 2.8125 0 0 Z " fill="#665C5A" transform="translate(75,17)"/>
<path d="M0 0 C1.65 0 3.3 0 5 0 C5 0.66 5 1.32 5 2 C5.99 2 6.98 2 8 2 C8 3.65 8 5.3 8 7 C2.72 7 -2.56 7 -8 7 C-8 5.68 -8 4.36 -8 3 C-6.865625 2.87625 -5.73125 2.7525 -4.5625 2.625 C-3.386875 2.41875 -2.21125 2.2125 -1 2 C-0.67 1.34 -0.34 0.68 0 0 Z " fill="#202020" transform="translate(96,121)"/>
<path d="M0 0 C5.625 -0.25 5.625 -0.25 9 2 C8.67 4.97 8.34 7.94 8 11 C5.36 10.34 2.72 9.68 0 9 C0 6.03 0 3.06 0 0 Z " fill="#121418" transform="translate(0,52)"/>
<path d="M0 0 C1.32 0.66 2.64 1.32 4 2 C2.88625 2.350625 1.7725 2.70125 0.625 3.0625 C-2.47084774 4.42241692 -2.89934927 4.79869854 -4.5 8 C-5.85162163 14.91971506 -4.62067185 22.53567611 -2 29 C-5.30927245 25.84114903 -7.2161322 23.42089333 -7.4140625 18.76953125 C-7.45273437 17.96708984 -7.49140625 17.16464844 -7.53125 16.33789062 C-7.5621875 15.50451172 -7.593125 14.67113281 -7.625 13.8125 C-7.66367187 12.96751953 -7.70234375 12.12253906 -7.7421875 11.25195312 C-7.83636279 9.16832476 -7.91926675 7.08419247 -8 5 C-10.35953094 7.35953094 -10.49141413 8.77895617 -11 12 C-11.33 12 -11.66 12 -12 12 C-12.125 5.375 -12.125 5.375 -11 2 C-9.0625 1.1875 -9.0625 1.1875 -7 1 C-6.34 1.66 -5.68 2.32 -5 3 C-2.39719432 2.67958603 -2.39719432 2.67958603 0 2 C0 1.34 0 0.68 0 0 Z " fill="#362723" transform="translate(68,12)"/>
<path d="M0 0 C-0.165 1.258125 -0.33 2.51625 -0.5 3.8125 C-1.11073012 9.2144509 -1.09133564 14.57060338 -1 20 C-2.32 20 -3.64 20 -5 20 C-5.27554763 17.22954827 -5.52123257 14.46186584 -5.75 11.6875 C-5.83121094 10.90181641 -5.91242187 10.11613281 -5.99609375 9.30664062 C-6.16207298 7.13968962 -6.267752 5.15746319 -6 3 C-3.96600073 0.76516466 -3.02483933 0 0 0 Z " fill="#968A7C" transform="translate(59,108)"/>
<path d="M0 0 C-0.33 1.98 -0.66 3.96 -1 6 C-1.66 5.34 -2.32 4.68 -3 4 C-6.49721894 3.92783361 -6.49721894 3.92783361 -10 5 C-11.8624438 7.40858714 -11.8624438 7.40858714 -13 10 C-13.99 10.495 -13.99 10.495 -15 11 C-15 10.34 -15 9.68 -15 9 C-16.98 9 -18.96 9 -21 9 C-21.33 8.34 -21.66 7.68 -22 7 C-19.46403185 5.81935925 -16.92240778 4.65547919 -14.375 3.5 C-13.66214844 3.16613281 -12.94929688 2.83226562 -12.21484375 2.48828125 C-7.96391129 0.57731161 -4.76178423 -0.42059924 0 0 Z " fill="#2F221F" transform="translate(52,13)"/>
<path d="M0 0 C3.45179956 1.50868127 5.88084148 3.57221201 8.6875 6.0625 C13.57540462 10.07886145 16.73230237 11 23 11 C23 11.99 23 12.98 23 14 C22.01 14 21.02 14 20 14 C19.67 14.66 19.34 15.32 19 16 C19 15.34 19 14.68 19 14 C17.989375 14.165 16.97875 14.33 15.9375 14.5 C10.81093228 13.84900727 9.71440206 11.96129021 6.64453125 8.0390625 C4.70275352 5.63144261 2.42032267 3.90692089 0 2 C0 1.34 0 0.68 0 0 Z " fill="#1D1310" transform="translate(97,23)"/>
<path d="M0 0 C1.875 0.3125 1.875 0.3125 4 1 C6.22697147 4.34045721 6.55724635 6.43677228 7.125 10.375 C7.29257813 11.49648437 7.46015625 12.61796875 7.6328125 13.7734375 C7.94965288 16.55758804 8.07332983 19.20299084 8 22 C7.34 22 6.68 22 6 22 C3.86380263 15.79485526 2.63482473 10.57315478 3 4 C2.34 4 1.68 4 1 4 C0.67 2.68 0.34 1.36 0 0 Z " fill="#AB9D8E" transform="translate(79,106)"/>
<path d="M0 0 C2.875 0.3125 2.875 0.3125 6 1 C8.4294516 4.6441774 8.16179575 6.71241272 8 11 C5.03415333 9.62299976 2.32335498 8.32335498 0 6 C-0.25 2.8125 -0.25 2.8125 0 0 Z " fill="#6A6455" transform="translate(0,61)"/>
<path d="M0 0 C1.75908397 0.20365234 3.50897244 0.4889668 5.25 0.8125 C6.68085937 1.06966797 6.68085937 1.06966797 8.140625 1.33203125 C10.91333588 1.97975469 13.39056373 2.87146643 16 4 C16 4.33 16 4.66 16 5 C11.05 5 6.1 5 1 5 C0.34 3.68 -0.32 2.36 -1 1 C-0.67 0.67 -0.34 0.34 0 0 Z " fill="#3B3A3B" transform="translate(109,100)"/>
<path d="M0 0 C0.99 0 1.98 0 3 0 C3.05379226 2.95857409 3.09357093 5.91617721 3.125 8.875 C3.14175781 9.71675781 3.15851563 10.55851562 3.17578125 11.42578125 C3.18222656 12.23144531 3.18867187 13.03710938 3.1953125 13.8671875 C3.20578613 14.61081543 3.21625977 15.35444336 3.22705078 16.12060547 C3 18 3 18 1 20 C0.34 19.34 -0.32 18.68 -1 18 C-0.67 17.67 -0.34 17.34 0 17 C0.07325168 14.13732433 0.09238205 11.299281 0.0625 8.4375 C0.05798828 7.63119141 0.05347656 6.82488281 0.04882812 5.99414062 C0.03700518 3.99606244 0.01906914 1.99802217 0 0 Z " fill="#C09479" transform="translate(95,75)"/>
<path d="M0 0 C1.79206547 0.14084796 3.58364917 0.28783701 5.375 0.4375 C6.87160156 0.55931641 6.87160156 0.55931641 8.3984375 0.68359375 C11 1 11 1 13 2 C12.67 2.99 12.34 3.98 12 5 C10.5629191 5.05422947 9.12524538 5.09289723 7.6875 5.125 C6.88699219 5.14820313 6.08648437 5.17140625 5.26171875 5.1953125 C3 5 3 5 0 3 C0 2.01 0 1.02 0 0 Z " fill="#605651" transform="translate(105,44)"/>
<path d="M0 0 C6.27 0 12.54 0 19 0 C19.33 0.99 19.66 1.98 20 3 C20.66 3 21.32 3 22 3 C22 5.31 22 7.62 22 10 C21.67 10 21.34 10 21 10 C20.34 8.02 19.68 6.04 19 4 C17.8553125 3.7834375 17.8553125 3.7834375 16.6875 3.5625 C14 3 14 3 11 2 C9.10529184 1.9314505 7.2083166 1.91519628 5.3125 1.9375 C4.31863281 1.94652344 3.32476562 1.95554687 2.30078125 1.96484375 C1.54152344 1.97644531 0.78226563 1.98804687 0 2 C0 1.34 0 0.68 0 0 Z " fill="#796B63" transform="translate(60,107)"/>
<path d="M0 0 C0.33 0 0.66 0 1 0 C1.22162329 1.62324086 1.42689803 3.248721 1.625 4.875 C1.74101563 5.77992187 1.85703125 6.68484375 1.9765625 7.6171875 C1.98429688 8.40351562 1.99203125 9.18984375 2 10 C1.34 10.66 0.68 11.32 0 12 C-0.495 12.845625 -0.99 13.69125 -1.5 14.5625 C-3 17 -3 17 -5 18 C-5 15.36 -5 12.72 -5 10 C-4.34 10 -3.68 10 -3 10 C-3 9.34 -3 8.68 -3 8 C-2.01 8 -1.02 8 0 8 C0 5.36 0 2.72 0 0 Z " fill="#898782" transform="translate(5,87)"/>
<path d="M0 0 C2.97 0.495 2.97 0.495 6 1 C5.835 2.216875 5.67 3.43375 5.5 4.6875 C5.10545459 7.81607836 4.90130275 10.84168804 5 14 C3.5393715 11.35261084 3 10.10551666 3 7 C2.01 7.33 1.02 7.66 0 8 C0 5.36 0 2.72 0 0 Z " fill="#A3A09C" transform="translate(0,73)"/>
<path d="M0 0 C0.66 0 1.32 0 2 0 C1.67 1.65 1.34 3.3 1 5 C1.99 5.33 2.98 5.66 4 6 C-0.29 6 -4.58 6 -9 6 C-9 5.01 -9 4.02 -9 3 C-7.88625 2.87625 -6.7725 2.7525 -5.625 2.625 C-1.96896323 2.3534187 -1.96896323 2.3534187 0 0 Z " fill="#0A0A0A" transform="translate(98,122)"/>
<path d="M0 0 C4.29 0.66 8.58 1.32 13 2 C13 1.34 13 0.68 13 0 C14.45792884 -0.05399736 15.91642712 -0.09279177 17.375 -0.125 C18.18710937 -0.14820312 18.99921875 -0.17140625 19.8359375 -0.1953125 C22 0 22 0 24 2 C18.86764713 2.82117646 13.82403204 3.14302403 8.625 3.25 C7.42101562 3.27578125 6.21703125 3.3015625 4.9765625 3.328125 C3.99429687 3.21984375 3.01203125 3.1115625 2 3 C1.34 2.01 0.68 1.02 0 0 Z " fill="#4F4E4C" transform="translate(13,102)"/>
<path d="M0 0 C6.27 0 12.54 0 19 0 C19 0.66 19 1.32 19 2 C13.72 2 8.44 2 3 2 C2.67 2.66 2.34 3.32 2 4 C1.34 2.68 0.68 1.36 0 0 Z " fill="#333333" transform="translate(104,109)"/>
<path d="M0 0 C4 0 4 0 5.8125 1.75 C7 4 7 4 6.6875 6.25 C6.460625 6.8275 6.23375 7.405 6 8 C5.01 8 4.02 8 3 8 C0.19744677 5.0936485 0 4.21174952 0 0 Z " fill="#443A2A" transform="translate(8,90)"/>
<path d="M0 0 C0.33 0 0.66 0 1 0 C1.144375 1.093125 1.28875 2.18625 1.4375 3.3125 C1.88288104 6.93122987 1.88288104 6.93122987 3 10 C2.01 10 1.02 10 0 10 C-0.66 11.65 -1.32 13.3 -2 15 C-3.14871801 11.55384597 -2.80416945 9.90109891 -2.125 6.375 C-1.94195312 5.39273438 -1.75890625 4.41046875 -1.5703125 3.3984375 C-1 1 -1 1 0 0 Z " fill="#815D4B" transform="translate(36,59)"/>
<path d="M0 0 C2.31 0 4.62 0 7 0 C6.67 2.64 6.34 5.28 6 8 C5.67 7.01 5.34 6.02 5 5 C4.01 5 3.02 5 2 5 C1.67 5.99 1.34 6.98 1 8 C0.67 5.36 0.34 2.72 0 0 Z " fill="#8D644E" transform="translate(66,51)"/>
<path d="M0 0 C3.03852705 1.40976705 5.5939595 3.08870228 8.25 5.125 C8.95640625 5.66382813 9.6628125 6.20265625 10.390625 6.7578125 C10.92171875 7.16773438 11.4528125 7.57765625 12 8 C11.01 9.485 11.01 9.485 10 11 C8.32742645 9.5484451 6.66208242 8.08855591 5 6.625 C3.6078125 5.40683594 3.6078125 5.40683594 2.1875 4.1640625 C1.465625 3.44992188 0.74375 2.73578125 0 2 C0 1.34 0 0.68 0 0 Z " fill="#281C1B" transform="translate(97,23)"/>
<path d="M0 0 C1.9375 0.375 1.9375 0.375 4 1 C5.20272819 3.40545638 5.10071472 4.94996953 5.0625 7.625 C5.05347656 8.44226563 5.04445313 9.25953125 5.03515625 10.1015625 C5.02355469 10.72804688 5.01195313 11.35453125 5 12 C4.34 12 3.68 12 3 12 C3 9.36 3 6.72 3 4 C2.34 4 1.68 4 1 4 C0.67 2.68 0.34 1.36 0 0 Z " fill="#CDBBA9" transform="translate(79,106)"/>
<path d="M0 0 C2.31 0 4.62 0 7 0 C7 0.66 7 1.32 7 2 C7.66 2.33 8.32 2.66 9 3 C6.03 3.66 3.06 4.32 0 5 C0 3.35 0 1.7 0 0 Z " fill="#4C3D3B" transform="translate(69,14)"/>
<path d="M0 0 C0.99 0 1.98 0 3 0 C2.42647107 3.87132028 0.51295648 6.08172796 -2 9 C-2.66 8.67 -3.32 8.34 -4 8 C-2.87548273 5.0280615 -1.77706209 2.66559313 0 0 Z " fill="#2D1B11" transform="translate(79,81)"/>
<path d="M0 0 C0.38218767 1.65614657 0.71395102 3.32457024 1 5 C0 6 0 6 -2.5625 6.0625 C-3.7690625 6.0315625 -3.7690625 6.0315625 -5 6 C-4.625 3.5625 -4.625 3.5625 -4 1 C-2 0 -2 0 0 0 Z " fill="#B8B7B4" transform="translate(18,96)"/>
<path d="M0 0 C2.62187494 1.04874998 3.79371361 1.64931313 5.25 4.125 C5.4975 4.74375 5.745 5.3625 6 6 C4.02 6 2.04 6 0 6 C0 4.02 0 2.04 0 0 Z " fill="#504637" transform="translate(0,67)"/>
<path d="M0 0 C2.31 0.33 4.62 0.66 7 1 C6.67 1.99 6.34 2.98 6 4 C3.03 4 0.06 4 -3 4 C-3 3.67 -3 3.34 -3 3 C-1.35 3 0.3 3 2 3 C2 2.34 2 1.68 2 1 C1.34 0.67 0.68 0.34 0 0 Z " fill="#4F4544" transform="translate(111,45)"/>
<path d="M0 0 C3.40312738 1.05875074 6.01353231 2.00902154 9 4 C9 4.66 9 5.32 9 6 C5.32579134 5.69381595 4.21864487 5.24228216 1.6875 2.4375 C1.130625 1.633125 0.57375 0.82875 0 0 Z " fill="#423431" transform="translate(76,37)"/>
<path d="M0 0 C0.04254356 1.99954746 0.04080783 4.00041636 0 6 C-1 7 -1 7 -3.5625 7.0625 C-4.7690625 7.0315625 -4.7690625 7.0315625 -6 7 C-6 5 -6 5 -3.5625 2.375 C-1 0 -1 0 0 0 Z " fill="#291F1B" transform="translate(47,42)"/>
<path d="M0 0 C0.99 0.33 1.98 0.66 3 1 C3 4.3 3 7.6 3 11 C2.67 11 2.34 11 2 11 C1.67 8.69 1.34 6.38 1 4 C0.01 4.33 -0.98 4.66 -2 5 C-1.125 1.125 -1.125 1.125 0 0 Z " fill="#594945" transform="translate(53,13)"/>
<path d="M0 0 C-0.99 2.97 -1.98 5.94 -3 9 C-3.66 8.67 -4.32 8.34 -5 8 C-5.1875 5.125 -5.1875 5.125 -5 2 C-2 0 -2 0 0 0 Z " fill="#C5B2A0" transform="translate(59,108)"/>
<path d="M0 0 C2.4375 0.375 2.4375 0.375 5 1 C5.33 1.66 5.66 2.32 6 3 C4.68 3 3.36 3 2 3 C2 5.31 2 7.62 2 10 C1.67 10 1.34 10 1 10 C0.67 6.7 0.34 3.4 0 0 Z " fill="#6E6A65" transform="translate(84,107)"/>
<path d="M0 0 C1.32 0 2.64 0 4 0 C4.33 1.65 4.66 3.3 5 5 C3.02 4.34 1.04 3.68 -1 3 C-0.67 2.01 -0.34 1.02 0 0 Z " fill="#E5E2DF" transform="translate(7,96)"/>
<path d="M0 0 C1.98 0.66 3.96 1.32 6 2 C6 3.32 6 4.64 6 6 C6.66 6.33 7.32 6.66 8 7 C6.35 7 4.7 7 3 7 C2.690625 6.21625 2.38125 5.4325 2.0625 4.625 C1.07124962 2.07669872 1.07124962 2.07669872 0 0 Z " fill="#201918" transform="translate(10,41)"/>
<path d="M0 0 C1.86323318 0.25288812 3.71708432 0.57690153 5.5625 0.9375 C6.57441406 1.13214844 7.58632812 1.32679687 8.62890625 1.52734375 C9.80259766 1.76130859 9.80259766 1.76130859 11 2 C11 2.33 11 2.66 11 3 C9.5629191 3.05422947 8.12524538 3.09289723 6.6875 3.125 C5.88699219 3.14820312 5.08648437 3.17140625 4.26171875 3.1953125 C2 3 2 3 -1 1 C-0.67 0.67 -0.34 0.34 0 0 Z " fill="#272727" transform="translate(109,100)"/>
<path d="M0 0 C1.65 0.33 3.3 0.66 5 1 C5 1.66 5 2.32 5 3 C1.04 3 -2.92 3 -7 3 C-7 2.67 -7 2.34 -7 2 C-3.535 1.505 -3.535 1.505 0 1 C0 0.67 0 0.34 0 0 Z " fill="#71706F" transform="translate(99,99)"/>
<path d="M0 0 C2.475 0.495 2.475 0.495 5 1 C5 1.99 5 2.98 5 4 C4.01 4 3.02 4 2 4 C2 4.66 2 5.32 2 6 C1.34 6 0.68 6 0 6 C0 4.02 0 2.04 0 0 Z " fill="#B8B8B7" transform="translate(0,91)"/>
<path d="M0 0 C0.99 0 1.98 0 3 0 C2.67 0.99 2.34 1.98 2 3 C-0.31 3 -2.62 3 -5 3 C-5.33 4.32 -5.66 5.64 -6 7 C-6 5.02 -6 3.04 -6 1 C-3.03 1.495 -3.03 1.495 0 2 C0 1.34 0 0.68 0 0 Z " fill="#44433F" transform="translate(93,121)"/>
<path d="M0 0 C0.66 0 1.32 0 2 0 C2.99 3.96 3.98 7.92 5 12 C0.22804692 7.22804692 0.41863411 6.27951163 0 0 Z " fill="#453126" transform="translate(36,58)"/>
<path d="M0 0 C2.97 0.495 2.97 0.495 6 1 C6.33 1.99 6.66 2.98 7 4 C4.03 3.505 4.03 3.505 1 3 C0.67 2.01 0.34 1.02 0 0 Z " fill="#9DA9B5" transform="translate(0,61)"/>
<path d="M0 0 C5.53846154 -0.36923077 5.53846154 -0.36923077 7.875 1.5 C8.24625 1.995 8.6175 2.49 9 3 C3.46153846 3.36923077 3.46153846 3.36923077 1.125 1.5 C0.75375 1.005 0.3825 0.51 0 0 Z " fill="#2F2F2E" transform="translate(0,52)"/>
<path d="M0 0 C4.95 0.99 4.95 0.99 10 2 C10 2.33 10 2.66 10 3 C6.7 3 3.4 3 0 3 C0 2.01 0 1.02 0 0 Z " fill="#0A0603" transform="translate(62,91)"/>
<path d="M0 0 C0.66 0 1.32 0 2 0 C5 4.38461538 5 4.38461538 5 7 C4.01 7.33 3.02 7.66 2 8 C1.34 5.36 0.68 2.72 0 0 Z " fill="#877B60" transform="translate(13,89)"/>
<path d="M0 0 C0.33 0 0.66 0 1 0 C1.33 2.64 1.66 5.28 2 8 C1.01 8.33 0.02 8.66 -1 9 C-1.09765625 2.84765625 -1.09765625 2.84765625 -1 1 C-0.67 0.67 -0.34 0.34 0 0 Z " fill="#906853" transform="translate(36,59)"/>
<path d="M0 0 C1.98 0 3.96 0 6 0 C6 0.66 6 1.32 6 2 C3.69 2.33 1.38 2.66 -1 3 C-0.67 2.01 -0.34 1.02 0 0 Z " fill="#352C2D" transform="translate(119,45)"/>
<path d="M0 0 C1.65 0 3.3 0 5 0 C5.33 1.32 5.66 2.64 6 4 C3.83125748 3.49396008 2.00032373 3.00016187 0 2 C0 1.34 0 0.68 0 0 Z " fill="#261C18" transform="translate(107,41)"/>
<path d="M0 0 C0.226875 0.61875 0.45375 1.2375 0.6875 1.875 C2.37929835 4.61410209 3.99244161 5.05024472 7 6 C7 6.33 7 6.66 7 7 C4.69 7 2.38 7 0 7 C0 4.69 0 2.38 0 0 Z " fill="#493E3E" transform="translate(76,20)"/>
<path d="M0 0 C0.33 0.99 0.66 1.98 1 3 C-0.28965176 4.37562854 -1.62689293 5.70766393 -3 7 C-3.66 7 -4.32 7 -5 7 C-3.70700306 4.11562221 -2.34058637 2.12780579 0 0 Z " fill="#2D2D2D" transform="translate(23,121)"/>
<path d="M0 0 C2.64 0.66 5.28 1.32 8 2 C8 2.33 8 2.66 8 3 C5.03 3 2.06 3 -1 3 C-0.67 2.01 -0.34 1.02 0 0 Z " fill="#453B3A" transform="translate(92,55)"/>
<path d="M0 0 C1.32 0 2.64 0 4 0 C3.67 2.64 3.34 5.28 3 8 C2.34 7.67 1.68 7.34 1 7 C1.020625 6.21625 1.04125 5.4325 1.0625 4.625 C1.18684063 2.01885039 1.18684063 2.01885039 0 0 Z " fill="#1C1D1D" transform="translate(5,55)"/>
<path d="M0 0 C2.97 0.495 2.97 0.495 6 1 C5.67 1.66 5.34 2.32 5 3 C2.69 3 0.38 3 -2 3 C-1.34 2.67 -0.68 2.34 0 2 C0 1.34 0 0.68 0 0 Z " fill="#312421" transform="translate(85,41)"/>
</svg>
